<?xml version="1.0" standalone="no"?>
<!DOCTYPE svg PUBLIC "-//W3C//DTD SVG 1.1//EN" "http://www.w3.org/Graphics/SVG/1.1/DTD/svg11.dtd" >
<svg xmlns="http://www.w3.org/2000/svg">
<metadata>
This is a custom SVG font generated by IcoMoon.
<iconset grid="14"></iconset>
</metadata>
<defs>
<font id="multisite-icons" horiz-adv-x="448" >
<font-face units-per-em="448" ascent="432" descent="-16" />
<missing-glyph horiz-adv-x="448" />
<glyph unicode="&#xf0e6;" d="M 176.00,336.00q-38.25,0.00 -71.50-13.00t-52.875-35.25t-19.625-47.75q0.00-20.50 13.25-39.50t 37.25-33.00l 24.25-14.00l-8.75-21.00q 8.50,5.00 15.50,9.75l 11.00,7.75l 13.25-2.50q 19.50-3.50 38.25-3.50q 38.25,0.00 71.50,13.00t 52.875,35.25t 19.625,47.75t-19.625,47.75t-52.875,35.25t-71.50,13.00zM 176.00,368.00q 47.75,0.00 88.375-17.125t 64.125-46.625t 23.50-64.25t-23.50-64.25
t-64.125-46.625t-88.375-17.125q-21.50,0.00 -44.00,4.00q-31.00-22.00 -69.50-32.00q-9.00-2.25 -21.50-4.00l-0.75,0.00 q-2.75,0.00 -5.125,2.00t-2.875,5.25q-0.25,0.75 -0.25,1.625t 0.125,1.625t 0.50,1.50l 0.625,1.25t 0.875,1.375t 1.00,1.25t 1.125,1.25t 1.00,1.125q 1.25,1.50 5.75,6.25t 6.50,7.375t 5.625,7.25t 6.25,9.625t 5.125,11.00q-31.00,18.00 -48.75,44.25t-17.75,56.00q0.00,34.75 23.50,64.25t 64.125,46.625
t 88.375,17.125zM 381.50,75.75q 2.50-6.00 5.125-11.00t 6.25-9.625t 5.625-7.25t 6.50-7.375t 5.75-6.25q 0.25-0.25 1.00-1.125t 1.125-1.25t 1.00-1.25t 0.875-1.375l 0.625-1.25t 0.50-1.50t 0.125-1.625t-0.25-1.625q-0.75-3.50 -3.25-5.50t-5.50-1.75q-12.50,1.75 -21.50,4.00q-38.50,10.00 -69.50,32.00q-22.50-4.00 -44.00-4.00q-67.75,0.00 -118.00,33.00q 14.50-1.00 22.00-1.00q 40.25,0.00 77.25,11.25t 66.00,32.25
q 31.25,23.00 48.00,53.00t 16.75,63.50q0.00,19.25 -5.75,38.00q 32.25-17.75 51.00-44.50t 18.75-57.50q0.00-30.00 -17.75-56.125t-48.75-44.125z" data-tags="comments-alt, chat, talk, bubbles" />
<glyph unicode="&#xe016;" d="M 367.36,342.40c0.00,29.68-24.058,53.76-53.76,53.76S 259.84,372.08, 259.84,342.40c0.00-21.795, 12.992-40.522, 31.629-48.966c-5.085-43.635-33.197-52.438-73.808-65.117
	C 197.949,222.157, 175.034,214.989, 155.68,201.056L 155.68,293.03 C 174.787,301.296, 188.16,320.291, 188.16,342.40c0.00,29.68-24.08,53.76-53.76,53.76C 104.698,396.16, 80.64,372.08, 80.64,342.40
	c0.00-22.109, 13.373-41.104, 32.48-49.37l0.00-170.083 C 94.013,114.726, 80.64,95.731, 80.64,73.60c0.00-29.68, 24.058-53.76, 53.76-53.76c 29.68,0.00, 53.76,24.08, 53.76,53.76
	c0.00,21.795-12.992,40.522-31.651,48.966c 5.107,43.635, 33.242,52.461, 73.83,65.117c 41.283,12.902, 96.902,30.307, 103.802,105.034
	C 353.629,300.826, 367.36,320.00, 367.36,342.40z M 103.376,342.40c0.00,17.136, 13.888,31.024, 31.024,31.024S 165.424,359.536, 165.424,342.40S 151.536,311.376, 134.40,311.376
	S 103.376,325.264, 103.376,342.40z M 134.40,42.576c-17.136,0.00-31.024,13.888-31.024,31.024S 117.264,104.624, 134.40,104.624S 165.424,90.736, 165.424,73.60
	S 151.536,42.576, 134.40,42.576z M 313.60,311.376c-17.114,0.00-31.024,13.888-31.024,31.024S 296.486,373.424, 313.60,373.424S 344.624,359.536, 344.624,342.40
	S 330.714,311.376, 313.60,311.376z" data-tags="flow-branch, branch" />
<glyph unicode="&#xe015;" d="M 403.20,387.20L 44.80,387.20 C 20.16,387.20,0.00,367.04,0.00,342.40l0.00-268.80 c0.00-24.64, 20.16-44.80, 44.80-44.80l 358.40,0.00 c 24.663,0.00, 44.80,20.16, 44.80,44.80L 448.00,342.40 C 448.00,367.04, 427.863,387.20, 403.20,387.20z M 403.20,73.60L 44.80,73.60 L 44.80,342.40 l 358.40,0.00 L 403.20,73.60 z M 201.60,160.96L 89.60,160.96 
		L 89.60,120.64 l 112.00,0.00 L 201.60,160.96 z M 201.60,228.16L 89.60,228.16 l0.00-40.32 l 112.00,0.00 L 201.60,228.16 z M 201.60,295.36L 89.60,295.36 l0.00-40.32 l 112.00,0.00 L 201.60,295.36 z M 356.16,152.00c0.00,0.00-38.08,9.945-38.08,29.523c0.00,18.637, 24.663,26.477, 24.663,64.557
		c0.00,30.912-9.408,49.28-40.343,49.28s-40.32-18.345-40.32-49.28c0.00-38.08, 24.64-45.92, 24.64-64.557c0.00-19.577-38.057-29.523-38.057-29.523C 246.40,152.00, 246.40,120.64, 246.40,120.64
		l 112.00,0.00 C 358.40,120.64, 358.40,152.00, 356.16,152.00z" data-tags="vcard, card" />
<glyph unicode="&#xe013;" d="M 305.715,267.069c-2.957,7.952, 79.296,81.424, 31.315,140.941c-11.245,13.911-49.303-66.663-103.376-103.129C 203.84,284.765, 134.40,241.936, 134.40,218.259l0.00-153.239 
	C 134.40,36.551, 244.473,6.40, 328.137,6.40C 358.803,6.40, 403.20,198.48, 403.20,229.011C 403.20,259.632, 308.672,259.095, 305.715,267.069z M 112.00,264.941c-14.717,0.00-67.20-8.96-67.20-69.933
	l0.00-108.595 c0.00-60.973, 52.483-67.671, 67.20-67.671s-22.40,12.813-22.40,50.601L 89.60,212.099 C 89.60,251.703, 126.717,264.941, 112.00,264.941z" data-tags="thumbs up, like, rate, agree, approve" />
<glyph unicode="&#xe012;" d="M 336.00,140.80c-15.411,0.00-29.523-5.219-40.857-13.933l-116.905,70.135C 178.797,200.585, 179.20,204.259, 179.20,208.00c0.00,3.763-0.403,7.415-0.963,10.999
		l 116.905,70.135C 306.477,280.419, 320.589,275.20, 336.00,275.20c 37.095,0.00, 67.20,30.083, 67.20,67.20s-30.105,67.20-67.20,67.20s-67.20-30.083-67.20-67.20c0.00-3.741, 0.403-7.415, 0.985-10.999
		L 152.88,261.245C 141.545,269.981, 127.411,275.20, 112.00,275.20c-37.117,0.00-67.20-30.083-67.20-67.20c0.00-37.095, 30.083-67.20, 67.20-67.20c 15.411,0.00, 29.545,5.219, 40.88,13.933l 116.905-70.135
		C 269.203,81.015, 268.80,77.363, 268.80,73.60c0.00-37.095, 30.105-67.20, 67.20-67.20s 67.20,30.105, 67.20,67.20S 373.095,140.80, 336.00,140.80z" data-tags="share, spread" />
<glyph unicode="&#xe011;" d="M 160.944,2.592c 17.673-11.424, 38.147-19.152, 63.056-18.547
	c 24.909-0.605, 45.36,7.123, 63.033,18.547L 287.033,48.96 L 160.944,48.96 L 160.944,2.592 z M 284.391,75.863c0.00,97.575, 103.735,128.80, 95.961,225.993
	C 375.469,363.187, 333.917,432.00, 224.00,432.00S 72.531,363.187, 67.648,301.856c-7.773-97.216, 95.939-128.419, 95.939-225.993L 284.391,75.863 z M 115.091,298.317
	C 119.751,356.535, 159.353,386.057, 224.00,386.057c 64.647,0.00, 104.249-29.523, 108.887-87.741c 2.531-31.875-15.792-53.133-40.544-87.943
	c-18.211-25.671-39.76-55.977-49.84-95.447L 205.475,114.928 c-10.08,39.469-31.607,69.753-49.863,95.447C 130.883,245.207, 112.56,266.441, 115.091,298.317z" data-tags="light-bulb, lamp, bulb, idea, tip" />
<glyph unicode="&#xe010;" d="M 284.907,199.966L 448.00,87.481L 448.00,346.435 	zM0.00,346.435L0.00,87.481L 163.09,199.982 	zM 224.00,145.27L 185.062,180.231L0.00,68.00L 448.00,68.00L 262.933,180.231 	zM 434.56,348.00L 13.44,348.00L 224.00,189.69 	z" data-tags="mail, contact, support, newsletter, letter, email" />
<glyph unicode="&#xe00f;" d="M 190.40,409.60L 170.263,409.60 C 165.312,409.60, 161.28,405.568, 161.28,400.64l0.00-85.12 L 82.073,315.52 c-3.696,0.00-8.288-0.851-12.679-2.195
		C 64.96,311.959, 60.727,310.077, 57.703,308.016l-53.20-36.512C 1.501,269.443,0.00,266.733,0.00,264.00s 1.501-5.443, 4.503-7.504l 53.20-36.512
		C 60.727,217.923, 64.96,216.041, 69.395,214.675C 73.785,213.331, 78.377,212.48, 82.073,212.48L 161.28,212.48 l0.00-197.12 c0.00-4.951, 4.032-8.96, 8.96-8.96L 190.40,6.40 
		c 4.951,0.00, 8.96,4.032, 8.96,8.96L 199.36,400.64 C 199.36,405.568, 195.351,409.60, 190.40,409.60z M 443.497,316.281l-53.20,36.512c-3.001,2.061-7.235,3.943-11.671,5.309
		C 374.215,359.469, 369.623,360.32, 365.927,360.32L 212.80,360.32 l 17.943-103.04l 135.184,0.00 c 3.696,0.00, 8.288,0.851, 12.701,2.195s 8.669,3.248, 11.671,5.287l 53.20,36.512
		C 446.521,303.357, 448.00,306.067, 448.00,308.80S 446.521,314.243, 443.497,316.281z" data-tags="directions, address, guide, location" />
<glyph unicode="&#xe00e;" d="M 170.509,336.621c-8.221,7.728-19.331,7.728-27.575,0.00L0.00,208.00l 142.935-128.599c 8.243-7.751, 19.353-7.751, 27.575,0.00s 8.221,20.295,0.00,28.045
	L 59.539,208.00l 110.992,100.531C 178.729,316.281, 178.729,328.848, 170.509,336.621z M 305.065,336.621c-8.243,7.728-19.331,7.728-27.575,0.00
	c-8.221-7.773-7.795-20.317, 0.471-28.067L 388.461,208.00l-110.521-100.553c-8.243-7.751-8.691-20.295-0.471-28.045
	c 8.243-7.751, 19.331-7.751, 27.575,0.00L 448.00,208.00L 305.065,336.621z" data-tags="code, embed" />
<glyph unicode="&#xe00c;" d="M 403.20,409.60L 44.80,409.60 C 20.16,409.60,0.00,389.44,0.00,364.80l0.00-268.80 c0.00-24.64, 20.16-44.352, 44.80-44.352l 89.152,0.00 L 133.952,95.552 l-89.60,0.00 L 44.352,302.08 l 359.296,0.00 l0.00-206.528 l-89.60,0.00 l0.00-43.927 L 403.20,51.625 c 24.663,0.00, 44.80,19.735, 44.80,44.352L 448.00,364.80 
	C 448.00,389.44, 427.863,409.60, 403.20,409.60z M 58.263,335.008c-9.296,0.00-16.80,7.325-16.80,16.352s 7.504,16.352, 16.80,16.352c 9.273,0.00, 16.80-7.325, 16.80-16.352
	S 67.536,335.008, 58.263,335.008z M 103.063,335.008c-9.296,0.00-16.80,7.325-16.80,16.352s 7.504,16.352, 16.80,16.352c 9.273,0.00, 16.80-7.325, 16.80-16.352
	S 112.336,335.008, 103.063,335.008z M 403.671,337.472L 133.952,337.472 L 133.952,365.248 l 269.696,0.00 L 403.648,337.472 z M 222.835,248.903l-108.685-108.013l 67.20,0.00 L 181.351,6.40 l 82.969,0.00 l0.00,134.489 l 67.20,0.00 L 222.835,248.903z" data-tags="publish, upload, load, import, open" />
<glyph unicode="&#xe00b;" d="M 442.467,188.265c-13.977,38.259-53.021,61.085-104.429,61.085c-1.993,0.00-3.943-0.067-5.869-0.157l-0.336,46.189
	c0.00,0.00, 76.361,13.193, 78.937,13.641s 3.001,2.665, 2.464,5.152c-0.515,2.487-3.741,19.801-4.211,21.885c-0.627,2.912-2.307,2.845-4.637,2.441
	s-72.823-10.349-72.823-10.349s-0.247,43.769-0.269,46.569c-0.023,2.80-1.568,3.561-4.345,3.517c-2.80-0.045-20.631-0.313-22.983-0.359
	c-2.352-0.023-3.651-1.097-3.607-3.337c 0.045-2.24, 0.739-51.655, 0.739-51.655s-68.589-11.849-70.471-12.163s-3.808-1.209-3.36-3.203
	c 0.425-1.993, 4.256-24.483, 4.659-26.253c 0.381-1.769, 1.591-2.845, 4.189-2.397s 65.52,11.312, 65.52,11.312l 0.784-45.203
	c-24.125-6.339-40.343-18.457-50.535-29.187c-17.203-18.077-27.037-42.269-27.037-66.371c0.00-35.571, 21.728-56.649, 52.125-60.368
	c 70.851-8.669, 114.665,68.521, 129.248,105.593c 24.595-33.712, 5.757-97.529-46.905-133.929c-0.941-0.695-2.173-2.889-0.717-4.637
	s 12.096-14.829, 13.865-16.979c 1.769-2.105, 4.615-1.277, 5.735-0.471C 434.425,77.319, 460.185,139.703, 442.467,188.265z M 276.999,116.877
	c-21.616,2.711-21.123,20.473-21.123,32.547c0.00,17.315, 7.325,35.392, 19.60,48.295c 7.527,7.907, 16.80,13.911, 27.529,17.897l 1.837-95.805
	C 296.263,116.877, 286.989,115.645, 276.999,116.877z M 331.385,129.241l 1.008,92.041c 1.881,0.089, 3.741,0.224, 5.645,0.224
	c 17.315,0.00, 33.488-3.248, 42.247-8.109C 389.043,208.537, 357.369,152.649, 331.385,129.241z M 130.883,301.005C 130.211,303.111, 128.599,304.231, 126.515,304.231
	l-43.68,0.00 c-2.061,0.00-3.696-1.12-4.345-3.225C 69.283,271.907, 0.515,54.784, 0.179,53.687c-0.381-1.187-0.247-1.703, 1.389-1.703l 38.819,0.00 
	c 1.68,0.00, 2.217,0.515, 2.531,1.613c 0.359,1.143, 22.601,74.323, 22.601,74.323l 78.311,0.00 c0.00,0.00, 22.243-73.203, 22.579-74.323
	c 0.359-1.097, 0.851-1.613, 2.553-1.613l 38.797,0.00 c 1.657,0.00, 1.792,0.515, 1.389,1.703C 208.857,54.784, 140.112,271.907, 130.883,301.005z M 72.285,159.481
	l 32.413,117.60l 32.391-117.60L 72.285,159.481 z" data-tags="language, international" />
<glyph unicode="&#xe00a;" d="M 383.60,271.325l-45.831,126.247c-3.383,9.319-13.328,14.247-22.153,11.021L 11.043,297.421C 2.195,294.217-2.263,284.048, 1.12,274.729
		l 48.317-133.101L 49.437,212.973 c0.00,32.189, 25.715,58.352, 57.367,58.352l 80.483,0.00 l 95.984,67.379l 55.552-67.379L 383.60,271.325 z M 430.931,230.915L 106.803,230.915 
		c-9.408,0.00-17.069-8.041-17.069-17.965l0.00-211.031 c0.00-9.901, 7.639-17.965, 17.069-17.965l 324.128,0.00 c 9.431,0.00, 17.069,8.041, 17.069,17.965L 448.00,212.973 
		C 448.00,222.873, 440.361,230.915, 430.931,230.915z M 406.201,28.867L 137.513,28.867 l0.00,38.505 l 41.328,96.208l 62.025-76.989l 58.173,59.629l 74.793,26.992l 32.368-72.173
		L 406.201,28.867 z" data-tags="pictures, images, photos" />
<glyph unicode="&#xe009;" d="M 380.083,320.00c0.00,22.40-22.288,22.40-22.288,22.40L 90.205,342.40 c0.00,0.00-22.288,0.00-22.288-22.40l0.00-22.40 l 312.167,0.00 L 380.083,320.00 z M 313.175,387.20L 134.803,387.20 c0.00,0.00-22.288,0.00-22.288-22.40l 222.969,0.00 
		C 335.485,387.20, 313.175,387.20, 313.175,387.20z M 424.659,297.60c-13.193,13.261-13.193,13.261-13.193,13.261L 411.465,275.20 L 36.512,275.20 L 36.512,310.861 c0.00,0.00,0.00,0.00-13.193-13.261
		S 0.672,280.777, 6.003,252.777C 11.267,224.889, 36.871,71.897, 40.656,51.20c 4.189-22.713, 27.261-22.40, 27.261-22.40l 312.167,0.00 c0.00,0.00, 23.072-0.313, 27.261,22.40
		c 3.808,20.697, 29.389,173.689, 34.675,201.577C 447.328,280.777, 437.875,284.339, 424.659,297.60z M 313.175,176.64c0.00,0.00,0.00-22.40-22.311-22.40L 157.113,154.24 
		c-22.288,0.00-22.288,22.40-22.288,22.40l0.00,44.80 l 31.225,0.00 L 166.051,185.60 l 115.875,0.00 L 281.927,221.44 l 31.271,0.00 L 313.197,176.64 z" data-tags="archive, drawer, cabinet, files, category" />
<glyph unicode="&#xe008;" d="M 418.745,372.976C 411.063,370.265, 30.755,236.269, 23.273,233.625c-6.361-2.24-7.795-7.728-0.224-10.729
	c 8.983-3.607, 85.031-34.071, 85.031-34.071L 108.057,188.825 l 50.423-20.205c0.00,0.00, 242.749,178.281, 246.041,180.679c 3.293,2.419, 7.123-2.128, 4.727-4.727
	c-2.397-2.621-176.311-190.713-176.311-190.713c-0.023,0.00-0.023,0.00-0.023,0.00l-10.125-11.289l 13.417-7.213l0.00,0.00c0.00,0.00, 104.16-56.067, 111.575-60.077
	c 6.496-3.495, 14.963-0.583, 16.845,7.504c 2.217,9.543, 63.728,274.669, 65.095,280.537C 431.513,371.005, 426.451,375.687, 418.745,372.976z M 158.032,47.571
	c0.00-5.533, 3.113-7.056, 7.415-3.159c 5.60,5.107, 63.817,57.344, 63.817,57.344l-71.232,36.871L 158.032,47.571 z" data-tags="paperplane, travel, plane, airplane" />
<glyph unicode="&#xe007;" d="M 385.795,274.551c-35.459,82.544-92.557,145.399-121.431,133.639c-49.033-19.936, 29.232-115.673-211.591-213.561
	c-20.809-8.445-26.073-42.291-17.36-62.519c 8.691-20.227, 37.139-40.365, 57.949-31.92c 3.584,1.456, 16.823,5.712, 16.823,5.712
	c 14.851-19.936, 30.397-8.109, 35.929-20.787c 6.631-15.232, 21.033-48.317, 25.917-59.561c 4.928-11.245, 16.039-21.683, 24.103-18.615
	c 8.019,3.069, 35.415,13.507, 45.897,17.472s 12.992,13.328, 9.789,20.697c-3.449,7.929-17.607,10.259-21.639,19.533
	c-4.055,9.273-17.248,38.953-21.033,48.317c-5.152,12.723, 5.801,23.072, 21.728,24.729c 109.625,11.424, 130.121-56.291, 167.44-41.104
	C 427.123,108.365, 421.255,192.007, 385.795,274.551z M 373.453,140.665c-6.407-2.599-49.549,31.405-77.123,95.581
	c-27.552,64.153-24.08,122.797-17.696,125.395c 6.407,2.621, 48.496-38.439, 76.071-102.592C 382.233,194.919, 379.859,143.264, 373.453,140.665z" data-tags="megaphone, advertise, announce, alert" />
<glyph unicode="&#xe006;" d="M 373.336,432.00L 74.675,432.00 C 33.604,432.00,0.00,398.395,0.00,357.324l0.00-298.65 C0.00,17.578, 33.605-16.00, 74.676-16.00L 373.336-16.00 
	c 41.071,0.00, 74.664,33.577, 74.664,74.674L 448.00,357.324 C 448.00,398.395, 414.407,432.00, 373.336,432.00z M 122.038,68.329C 101.051,68.329, 84.00,85.257, 84.00,106.229
	c0.00,20.862, 17.05,37.98, 38.038,37.98c 21.069,0.00, 38.089-17.119, 38.089-37.98C 160.126,85.257, 143.106,68.329, 122.038,68.329z
	 M 217.642,68.002c0.00,35.792-13.916,69.483-39.139,94.694c-25.25,25.266-58.79,39.211-94.458,39.211L 84.046,256.676 
	c 103.973,0.00, 188.618-84.631, 188.618-188.674L 217.642,68.002L 217.642,68.002z M 314.837,68.002
	c0.00,127.34-103.538,230.974-230.727,230.974L 84.11,353.772 c 157.501,0.00, 285.664-128.242, 285.664-285.772L 314.837,68.002L 314.837,68.002z" data-tags="feed, rss, social" />
<glyph unicode="&#xe005;" d="M 315.616,381.959C 290.057,400.393, 258.003,409.60, 219.385,409.60C 189.997,409.60, 165.223,403.104, 145.085,390.157C 113.12,369.863, 96.141,335.411, 94.08,286.803l 74.055,0.00 
		c0.00,14.157, 4.121,27.799, 12.387,40.925s 22.288,19.689, 42.067,19.689c 20.093,0.00, 33.959-5.331, 41.529-15.971c 7.593-10.685, 11.379-22.489, 11.379-35.437
		c0.00-11.267-5.645-21.571-12.455-30.957c-3.741-5.465-8.691-10.483-14.807-15.097c0.00,0.00-40.163-25.76-57.815-46.457
		c-10.237-12.007-11.155-29.971-12.051-55.753c-0.067-1.837, 0.627-5.623, 7.056-5.623s 51.901,0.00, 57.613,0.00s 6.899,4.233, 6.989,6.093
		c 0.403,9.385, 1.456,14.179, 3.181,19.60c 3.248,10.237, 12.029,19.175, 21.929,26.857l 20.384,14.067c 18.391,14.336, 33.085,26.096, 39.559,35.325
		C 346.147,259.251, 353.92,277.933, 353.92,300.087C 353.92,336.263, 341.129,363.545, 315.616,381.959z M 218.199,97.703c-25.536,0.761-46.592-16.889-47.399-44.576
		c-0.807-27.664, 19.219-45.943, 44.755-46.704c 26.656-0.784, 47.152,16.307, 47.959,43.971C 264.297,78.08, 244.855,96.919, 218.199,97.703z" data-tags="question, help" />
<glyph unicode="&#xe001;" d="M 140.00,124.00c 7.70-7.70, 20.682-7.318, 28.85,0.85L 307.151,263.15C 315.318,271.318, 315.70,284.30, 308.00,292.00
		s-20.682,7.318-28.85-0.85L 140.85,152.85C 132.682,144.682, 132.30,131.70, 140.00,124.00zM 208.638,136.639c 1.995-3.959, 3.058-8.383, 3.058-12.992c0.00-7.707-2.95-14.901-8.309-20.26l-71.48-71.48
		c-5.358-5.358-12.554-8.309-20.26-8.309s-14.901,2.95-20.26,8.309l-43.48,43.48c-5.358,5.358-8.309,12.554-8.309,20.26
		s 2.95,14.901, 8.309,20.26l 71.48,71.48c 5.358,5.358, 12.554,8.31, 20.26,8.31c 4.609,0.00, 9.032-1.063, 12.992-3.058l 28.585,28.585
		c-12.193,9.367-26.88,14.07-41.577,14.07c-17.494,0.00-34.988-6.635-48.26-19.907l-71.48-71.48
		c-26.543-26.543-26.543-69.977,0.00-96.52l 43.48-43.48C 76.66-9.364, 94.153-16.00, 111.647-16.00
		c 17.495,0.00, 34.989,6.636, 48.26,19.907l 71.48,71.48c 24.421,24.421, 26.354,63.13, 5.838,89.838L 208.638,136.639zM 428.093,368.613l-43.48,43.48C 371.342,425.365, 353.848,432.00, 336.353,432.00c-17.494,0.00-34.988-6.635-48.26-19.907l-71.48-71.48
		c-24.421-24.421-26.354-63.13-5.837-89.837l 28.585,28.586c-1.994,3.959-3.057,8.383-3.057,12.991c0.00,7.707, 2.95,14.901, 8.309,20.26
		l 71.48,71.48c 5.358,5.358, 12.554,8.31, 20.26,8.31s 14.901-2.951, 20.26-8.31l 43.48-43.48
		c 5.358-5.358, 8.309-12.554, 8.309-20.26s-2.95-14.901-8.309-20.26l-71.48-71.48c-5.358-5.358-12.554-8.309-20.26-8.309
		c-4.609,0.00-9.032,1.063-12.992,3.058l-28.585-28.585c 12.194-9.367, 26.88-14.07, 41.577-14.07c 17.495,0.00, 34.989,6.636, 48.26,19.907
		l 71.48,71.48C 454.636,298.636, 454.636,342.07, 428.093,368.613z" data-tags="link, chain, url, uri, anchor" />
<glyph unicode="&#xe004;" d="M 224.00,423.063c-118.585,0.00-215.04-96.499-215.04-215.063c0.00-118.585, 96.455-215.063, 215.04-215.063s 215.04,96.477, 215.04,215.063
	C 439.04,326.563, 342.585,423.063, 224.00,423.063z M 407.411,208.00c0.00-41.955-14.247-80.663-37.991-111.575c-6.72,5.264-13.843,19.443-7.123,34.137
	c 6.765,14.784, 8.535,49.011, 6.989,62.317c-1.479,13.305-8.40,45.383-27.216,45.696c-18.749,0.291-31.629,6.473-42.784,28.739
	c-23.139,46.301, 43.433,55.216, 20.295,80.864c-6.473,7.191-39.939-29.657-44.845,19.443C 274.40,371.139, 277.76,376.403, 282.24,381.847
	C 354.905,357.431, 407.411,288.752, 407.411,208.00z M 198.80,389.575C 194.432,381.063, 182.851,377.568, 175.795,371.139C 160.496,357.296, 153.911,359.20, 145.645,345.895
	c-8.288-13.305-35.079-32.457-35.079-42.089c0.00-9.609, 13.529-20.989, 20.295-18.771c 6.765,2.24, 24.595,2.105, 35.079-1.568
	c 10.505-3.719, 87.696-7.415, 63.079-72.665c-7.795-20.743-41.933-17.248-51.027-51.609c-1.367-5.04-6.071-26.567-6.407-33.60
	c-0.537-10.887, 7.705-51.923-2.80-51.923c-10.551,0.00-38.909,36.713-38.909,43.367s-7.369,29.993-7.369,49.952s-33.981,19.645-33.981,46.189
	c0.00,23.968, 18.435,35.885, 14.291,47.331c-4.077,11.424-36.445,11.827-49.929,13.216C 76.451,334.919, 131.936,380.345, 198.80,389.575z M 166.32,33.952
	c 11.021,5.801, 12.141,13.328, 22.131,13.731c 11.424,0.493, 20.72,4.457, 33.577,7.28c 11.447,2.487, 31.875,14.089, 49.907,15.568
	c 15.165,1.255, 45.136-0.784, 53.20-15.433c-29.031-19.264-63.795-30.509-101.136-30.509C 203.84,24.589, 184.464,27.904, 166.32,33.952z" data-tags="earth, globe, planet" />
<glyph unicode="&#xf046;" d="M 352.00,199.50l0.00-79.50 q0.00-29.75 -21.125-50.875t-50.875-21.125l-208.00,0.00 q-29.75,0.00 -50.875,21.125t-21.125,50.875l0.00,208.00 q0.00,29.75 21.125,50.875t 50.875,21.125l 208.00,0.00 q 15.75,0.00 29.25-6.25q 3.75-1.75 4.50-5.75q 0.75-4.25 -2.25-7.25l-12.25-12.25q-2.50-2.50 -5.75-2.50q-0.75,0.00 -2.25,0.50q-5.75,1.50 -11.25,1.50l-208.00,0.00 q-16.50,0.00 -28.25-11.75t-11.75-28.25l0.00-208.00 
q0.00-16.50 11.75-28.25t 28.25-11.75l 208.00,0.00 q 16.50,0.00 28.25,11.75t 11.75,28.25l0.00,63.50 q0.00,3.25 2.25,5.50l 16.00,16.00q 2.50,2.50 5.75,2.50q 1.50,0.00 3.00-0.75q 5.00-2.00 5.00-7.25zM 409.75,321.75l-203.50-203.50q-6.00-6.00 -14.25-6.00t-14.25,6.00l-107.50,107.50q-6.00,6.00 -6.00,14.25t 6.00,14.25l 27.50,27.50q 6.00,6.00 14.25,6.00t 14.25-6.00l 65.75-65.75l 161.75,161.75q 6.00,6.00 14.25,6.00t 14.25-6.00l 27.50-27.50
q 6.00-6.00 6.00-14.25t-6.00-14.25z" horiz-adv-x="416" data-tags="check, checkbox, correct, tick" />
<glyph unicode="&#xf016;" d="M 32.00,48.00l 256.00,0.00 l0.00,192.00 l-104.00,0.00 q-10.00,0.00 -17.00,7.00t-7.00,17.00l0.00,104.00 l-128.00,0.00 l0.00-320.00 zM 192.00,272.00l 74.75,0.00 l-74.75,74.75l0.00-74.75 zM 320.00,240.00l0.00-200.00 q0.00-10.00 -7.00-17.00t-17.00-7.00l-272.00,0.00 q-10.00,0.00 -17.00,7.00t-7.00,17.00l0.00,336.00 q0.00,10.00 7.00,17.00t 17.00,7.00l 136.00,0.00 q 10.00,0.00 22.00-5.00t 19.00-12.00l 102.00-102.00q 7.00-7.00 12.00-19.00t 5.00-22.00z" horiz-adv-x="320" data-tags="file, paper, new, empty" />
<glyph unicode="&#xe017;" d="M 358.40,409.60L 89.60,409.60 C 64.96,409.60, 44.80,389.44, 44.80,364.80l0.00-313.60 c0.00-24.64, 20.16-44.80, 44.80-44.80l 268.80,0.00 c 24.662,0.00, 44.80,20.16, 44.80,44.80L 403.20,364.80 C 403.20,389.44, 383.062,409.60, 358.40,409.60z M 358.40,51.20L 89.60,51.20 L 89.60,364.80 l 268.80,0.00 L 358.40,51.20 z M 246.40,163.20L 134.40,163.20 l0.00-22.40 l 112.00,0.00 
	L 246.40,163.20 z M 313.60,252.80l-89.60,0.00 l0.00-22.40 l 89.60,0.00 L 313.60,252.80 z M 224.00,275.20l 89.60,0.00 L 313.60,320.00 l-89.60,0.00 L 224.00,275.20 z M 201.60,320.00L 134.40,320.00 l0.00-89.60 l 67.20,0.00 L 201.60,320.00 z M 179.20,208.00L 134.40,208.00 l0.00-22.40 l 44.80,0.00 L 179.20,208.00 z M 201.60,185.60l 112.00,0.00 l0.00,22.40 L 201.60,208.00 L 201.60,185.60 z M 313.60,118.40L 134.40,118.40 l0.00-22.40 l 179.20,0.00 L 313.60,118.40 z M 268.80,140.80l 44.80,0.00 l0.00,22.40 l-44.80,0.00 L 268.80,140.80 z" data-tags="newspaper, document, file" />
<glyph unicode="&#xf073;" d="M 32.00,16.00l 72.00,0.00 l0.00,72.00 l-72.00,0.00 l0.00-72.00 zM 120.00,16.00l 80.00,0.00 l0.00,72.00 l-80.00,0.00 l0.00-72.00 zM 32.00,104.00l 72.00,0.00 l0.00,80.00 l-72.00,0.00 l0.00-80.00 zM 120.00,104.00l 80.00,0.00 l0.00,80.00 l-80.00,0.00 l0.00-80.00 zM 32.00,200.00l 72.00,0.00 l0.00,72.00 l-72.00,0.00 l0.00-72.00 zM 216.00,16.00l 80.00,0.00 l0.00,72.00 l-80.00,0.00 l0.00-72.00 zM 120.00,200.00l 80.00,0.00 l0.00,72.00 l-80.00,0.00 l0.00-72.00 zM 312.00,16.00l 72.00,0.00 l0.00,72.00 l-72.00,0.00 l0.00-72.00 zM 216.00,104.00l 80.00,0.00 l0.00,80.00 l-80.00,0.00 l0.00-80.00 z
M 128.00,320.00l0.00,72.00 q0.00,3.25 -2.375,5.625t-5.625,2.375l-16.00,0.00 q-3.25,0.00 -5.625-2.375t-2.375-5.625l0.00-72.00 q0.00-3.25 2.375-5.625t 5.625-2.375l 16.00,0.00 q 3.25,0.00 5.625,2.375t 2.375,5.625zM 312.00,104.00l 72.00,0.00 l0.00,80.00 l-72.00,0.00 l0.00-80.00 zM 216.00,200.00l 80.00,0.00 l0.00,72.00 l-80.00,0.00 l0.00-72.00 zM 312.00,200.00l 72.00,0.00 l0.00,72.00 l-72.00,0.00 l0.00-72.00 zM 320.00,320.00l0.00,72.00 q0.00,3.25 -2.375,5.625t-5.625,2.375l-16.00,0.00 
q-3.25,0.00 -5.625-2.375t-2.375-5.625l0.00-72.00 q0.00-3.25 2.375-5.625t 5.625-2.375l 16.00,0.00 q 3.25,0.00 5.625,2.375t 2.375,5.625zM 416.00,336.00l0.00-320.00 q0.00-13.00 -9.50-22.50t-22.50-9.50l-352.00,0.00 q-13.00,0.00 -22.50,9.50t-9.50,22.50l0.00,320.00 q0.00,13.00 9.50,22.50t 22.50,9.50l 32.00,0.00 l0.00,24.00 q0.00,16.50 11.75,28.25t 28.25,11.75l 16.00,0.00 q 16.50,0.00 28.25-11.75t 11.75-28.25l0.00-24.00 l 96.00,0.00 l0.00,24.00 q0.00,16.50 11.75,28.25t 28.25,11.75
l 16.00,0.00 q 16.50,0.00 28.25-11.75t 11.75-28.25l0.00-24.00 l 32.00,0.00 q 13.00,0.00 22.50-9.50t 9.50-22.50z" horiz-adv-x="416" data-tags="calendar, date, schedule" />
<glyph unicode="&#xf02d;" d="M 409.75,312.50q 10.00-14.25 4.50-32.25l-68.75-226.50q-4.75-16.00 -19.125-26.875t-30.625-10.875l-230.75,0.00 q-19.25,0.00 -37.125,13.375t-24.875,32.875q-6.00,16.75 -0.50,31.75q0.00,1.00 0.75,6.75t 1.00,9.25q 0.25,2.00 -0.75,5.375t-0.75,4.875q 0.50,2.75 2.00,5.25t 4.125,5.875t 4.125,5.875q 5.75,9.50 11.25,22.875t 7.50,22.875q 0.75,2.50 0.125,7.50t-0.125,7.00q 0.75,2.75 4.25,7.00t 4.25,5.75
q 5.25,9.00 10.50,23.00t 6.25,22.50q 0.25,2.25 -0.625,8.00t 0.125,7.00q 1.00,3.25 5.50,7.625t 5.50,5.625q 4.75,6.50 10.625,21.125t 6.875,24.125q 0.25,2.00 -0.75,6.375t-0.50,6.625q 0.50,2.00 2.25,4.50t 4.50,5.75t 4.25,5.25q 2.00,3.00 4.125,7.625t 3.75,8.75t 4.00,9.00t 4.875,8.00t 6.625,5.875t 9.00,2.875t 11.875-1.375l-0.25-0.75q 9.50,2.25 12.75,2.25l 190.25,0.00 q 18.50,0.00 28.50-14.00t 4.50-32.50l-68.50-226.50
q-9.00-29.75 -17.875-38.375t-32.125-8.625l-217.25,0.00 q-6.75,0.00 -9.50-3.75q-2.75-4.00 -0.25-10.75q 6.00-17.50 36.00-17.50l 230.75,0.00 q 7.25,0.00 14.00,3.875t 8.75,10.375l 75.00,246.75q 1.75,5.50 1.25,14.25q 9.50-3.75 14.75-10.75zM 143.75,312.00q-1.00-3.25 0.50-5.625t 5.00-2.375l 152.00,0.00 q 3.25,0.00 6.375,2.375t 4.125,5.625l 5.25,16.00q 1.00,3.25 -0.50,5.625t-5.00,2.375l-152.00,0.00 q-3.25,0.00 -6.375-2.375
t-4.125-5.625zM 123.00,248.00q-1.00-3.25 0.50-5.625t 5.00-2.375l 152.00,0.00 q 3.25,0.00 6.375,2.375t 4.125,5.625l 5.25,16.00q 1.00,3.25 -0.50,5.625t-5.00,2.375l-152.00,0.00 q-3.25,0.00 -6.375-2.375t-4.125-5.625z" horiz-adv-x="416" data-tags="book, read, study, learn, education" />
<glyph unicode="&#xf044;" d="M 222.00,136.00l 29.00,29.00l-38.00,38.00l-29.00-29.00l0.00-14.00 l 24.00,0.00 l0.00-24.00 l 14.00,0.00 zM 332.00,316.00q-4.00,4.00 -8.25-0.25l-87.50-87.50q-4.25-4.25 -0.25-8.25t 8.25,0.25l 87.50,87.50q 4.25,4.25 0.25,8.25zM 352.00,167.50l0.00-47.50 q0.00-29.75 -21.125-50.875t-50.875-21.125l-208.00,0.00 q-29.75,0.00 -50.875,21.125t-21.125,50.875l0.00,208.00 q0.00,29.75 21.125,50.875t 50.875,21.125l 208.00,0.00 
q 15.75,0.00 29.25-6.25q 3.75-1.75 4.50-5.75q 0.75-4.25 -2.25-7.25l-12.25-12.25q-3.50-3.50 -8.00-2.00q-5.75,1.50 -11.25,1.50l-208.00,0.00 q-16.50,0.00 -28.25-11.75t-11.75-28.25l0.00-208.00 q0.00-16.50 11.75-28.25t 28.25-11.75l 208.00,0.00 q 16.50,0.00 28.25,11.75t 11.75,28.25l0.00,31.50 q0.00,3.25 2.25,5.50l 16.00,16.00q 3.75,3.75 8.75,1.75t 5.00-7.25zM 328.00,352.00l 72.00-72.00l-168.00-168.00l-72.00,0.00 l0.00,72.00 zM 439.00,319.00l-23.00-23.00
l-72.00,72.00l 23.00,23.00q 7.00,7.00 17.00,7.00t 17.00-7.00l 38.00-38.00q 7.00-7.00 7.00-17.00t-7.00-17.00z" data-tags="edit, write, blog" />
<glyph unicode="&#xf0c0;" d="M 148.25,208.00q-40.50-1.25 -66.25-32.00l-33.50,0.00 q-20.50,0.00 -34.50,10.125t-14.00,29.625q0.00,88.25 31.00,88.25q 1.50,0.00 10.875-5.25t 24.375-10.625t 29.75-5.375q 16.75,0.00 33.25,5.75q-1.25-9.25 -1.25-16.50q0.00-34.75 20.25-64.00zM 416.00,48.75q0.00-30.00 -18.25-47.375t-48.50-17.375l-218.50,0.00 q-30.25,0.00 -48.50,17.375t-18.25,47.375q0.00,13.25 0.875,25.875t 3.50,27.25t 6.625,27.125
t 10.75,24.375t 15.50,20.25t 21.375,13.375t 27.875,5.00q 2.50,0.00 10.75-5.375t 18.25-12.00t 26.75-12.00t 33.75-5.375t 33.75,5.375t 26.75,12.00t 18.25,12.00t 10.75,5.375q 15.25,0.00 27.875-5.00t 21.375-13.375t 15.50-20.25t 10.75-24.375t 6.625-27.125t 3.50-27.25t 0.875-25.875zM 160.00,368.00q0.00-26.50 -18.75-45.25t-45.25-18.75t-45.25,18.75t-18.75,45.25t 18.75,45.25t 45.25,18.75t 45.25-18.75
t 18.75-45.25zM 336.00,272.00q0.00-39.75 -28.125-67.875t-67.875-28.125t-67.875,28.125t-28.125,67.875t 28.125,67.875t 67.875,28.125t 67.875-28.125t 28.125-67.875zM 480.00,215.75q0.00-19.50 -14.00-29.625t-34.50-10.125l-33.50,0.00 q-25.75,30.75 -66.25,32.00q 20.25,29.25 20.25,64.00q0.00,7.25 -1.25,16.50q 16.50-5.75 33.25-5.75q 14.75,0.00 29.75,5.375t 24.375,10.625
t 10.875,5.25q 31.00,0.00 31.00-88.25zM 448.00,368.00q0.00-26.50 -18.75-45.25t-45.25-18.75t-45.25,18.75t-18.75,45.25t 18.75,45.25t 45.25,18.75t 45.25-18.75t 18.75-45.25z" horiz-adv-x="480" data-tags="group, people, users, team, members, community" />
<glyph unicode="&#xf0c9;" d="M 384.00,96.00l0.00-32.00 q0.00-6.50 -4.75-11.25t-11.25-4.75l-352.00,0.00 q-6.50,0.00 -11.25,4.75t-4.75,11.25l0.00,32.00 q0.00,6.50 4.75,11.25t 11.25,4.75l 352.00,0.00 q 6.50,0.00 11.25-4.75t 4.75-11.25zM 384.00,224.00l0.00-32.00 q0.00-6.50 -4.75-11.25t-11.25-4.75l-352.00,0.00 q-6.50,0.00 -11.25,4.75t-4.75,11.25l0.00,32.00 q0.00,6.50 4.75,11.25t 11.25,4.75l 352.00,0.00 q 6.50,0.00 11.25-4.75t 4.75-11.25zM 384.00,352.00l0.00-32.00 q0.00-6.50 -4.75-11.25
t-11.25-4.75l-352.00,0.00 q-6.50,0.00 -11.25,4.75t-4.75,11.25l0.00,32.00 q0.00,6.50 4.75,11.25t 11.25,4.75l 352.00,0.00 q 6.50,0.00 11.25-4.75t 4.75-11.25z" horiz-adv-x="384" data-tags="reorder, list, menu" />
<glyph class="hidden" unicode="&#xf000;" d="M0,432L 448 -16L0 -16 z" horiz-adv-x="0" />
</font>
</defs>
</svg>
