<?xml version="1.0" encoding="UTF-8" standalone="no"?>
<!-- Created with Inkscape (http://www.inkscape.org/) -->

<svg
   xmlns:dc="http://purl.org/dc/elements/1.1/"
   xmlns:cc="http://creativecommons.org/ns#"
   xmlns:rdf="http://www.w3.org/1999/02/22-rdf-syntax-ns#"
   xmlns:svg="http://www.w3.org/2000/svg"
   xmlns="http://www.w3.org/2000/svg"
   version="1.1"
   width="19.999994"
   height="19.99761"
   id="svg3798">
  <defs
     id="defs3800" />
  <metadata
     id="metadata3803">
    <rdf:RDF>
      <cc:Work
         rdf:about="">
        <dc:format>image/svg+xml</dc:format>
        <dc:type
           rdf:resource="http://purl.org/dc/dcmitype/StillImage" />
        <dc:title></dc:title>
      </cc:Work>
    </rdf:RDF>
  </metadata>
  <g
     transform="translate(-410,-376.64909)"
     id="layer1">
    <path
       d="m 425.01966,396.6467 h -10.04172 c -2.83227,0 -4.97794,-2.23149 -4.97794,-4.97795 v -10.04171 c 0,-2.83228 2.23149,-4.97795 4.97794,-4.97795 h 10.04172 c 2.83228,0 4.97794,2.2315 4.97794,4.97795 v 10.04171 c 0.0858,2.74646 -2.14566,4.97795 -4.97794,4.97795 z m 1.54488,-12.61652 -1.11575,-1.11574 c -0.0858,-0.0858 -0.42913,-0.0858 -0.51496,0 l -5.57873,5.57873 c -0.0858,0.0858 -0.42913,0.0858 -0.51496,0 L 416.437,386.0042 c -0.0858,-0.0858 -0.17166,-0.0858 -0.25748,-0.0858 -0.0858,0 -0.17166,0 -0.25748,0.0858 l -1.11575,1.02992 c -0.0858,0.0858 -0.0858,0.17165 -0.0858,0.25748 0,0.0858 0,0.17165 0.0858,0.25748 l 2.48897,2.5748 c 0.0858,0.0858 0.42914,0.42913 0.51496,0.51496 l 1.11575,1.11574 c 0.0858,0.0858 0.42913,0.0858 0.51496,0 l 7.20944,-7.20944 c 0,-0.17165 0,-0.3433 -0.0858,-0.51496 z"
       id="path-1"
       style="fill:#ffffff;fill-opacity:1" />
  </g>
</svg>
