<?xml version="1.0" encoding="utf-8"?>
<!-- Generator: Adobe Illustrator 17.1.0, SVG Export Plug-In . SVG Version: 6.00 Build 0)  -->
<!DOCTYPE svg PUBLIC "-//W3C//DTD SVG 1.1//EN" "http://www.w3.org/Graphics/SVG/1.1/DTD/svg11.dtd">
<svg version="1.1" id="error" xmlns="http://www.w3.org/2000/svg" xmlns:xlink="http://www.w3.org/1999/xlink" x="0px" y="0px"
	 viewBox="0 90 612 612" enable-background="new 0 90 612 612" xml:space="preserve">
<circle fill="#FF2423" cx="306" cy="396" r="306"/>
<path id="path-1" fill="#FFFFFF" d="M443.5,289.9c4.2,4.2,4.2,10.4,0,14.8l-84,84c-4.2,4.2-4.2,10.4,0,14.8l84,84
	c4.2,4.2,4.2,10.4,0,14.8l-31.5,31.3c-4.2,4.2-10.4,4.2-14.8,0l-84-84c-4.2-4.2-10.4-4.2-14.8,0l-84,84c-4.2,4.2-10.4,4.2-14.8,0
	l-31.3-31.5c-4.2-4.2-4.2-10.4,0-14.8l84-84c4.2-4.2,4.2-10.4,0-14.8l-84-84c-4.2-4.2-4.2-10.4,0-14.8l31.5-31.3
	c4.2-4.2,10.4-4.2,14.8,0l84,84c4.2,4.2,10.4,4.2,14.8,0l84-84c4.2-4.2,10.4-4.2,14.8,0L443.5,289.9z"/>
</svg>
