<?xml version="1.0" encoding="UTF-8" standalone="no"?>
<!-- Created with Inkscape (http://www.inkscape.org/) -->

<svg
   xmlns:dc="http://purl.org/dc/elements/1.1/"
   xmlns:cc="http://creativecommons.org/ns#"
   xmlns:rdf="http://www.w3.org/1999/02/22-rdf-syntax-ns#"
   xmlns:svg="http://www.w3.org/2000/svg"
   xmlns="http://www.w3.org/2000/svg"
   version="1.1"
   width="20"
   height="20"
   id="svg3850">
  <defs
     id="defs3852" />
  <metadata
     id="metadata3855">
    <rdf:RDF>
      <cc:Work
         rdf:about="">
        <dc:format>image/svg+xml</dc:format>
        <dc:type
           rdf:resource="http://purl.org/dc/dcmitype/StillImage" />
        <dc:title></dc:title>
      </cc:Work>
    </rdf:RDF>
  </metadata>
  <g
     transform="translate(-567.14286,-333.79075)"
     id="layer1">
    <path
       d="m 577.14286,353.79075 c -5.47009,0 -10,-4.44444 -10,-10 0,-5.55555 4.44444,-10 10,-10 5.55555,0 10,4.52992 10,10 0,5.47009 -4.52992,10 -10,10 z m 0,-15.9829 c -3.24787,0 -5.98291,2.73504 -5.98291,5.9829 0,3.24787 2.73504,5.98291 5.98291,5.98291 3.24786,0 5.9829,-2.73504 5.9829,-5.98291 0,-3.24786 -2.73504,-5.9829 -5.9829,-5.9829 z m 0,8.97436 c -1.7094,0 -2.99146,-1.28205 -2.99146,-2.99146 0,-1.7094 1.28206,-2.99145 2.99146,-2.99145 1.7094,0 2.99145,1.28205 2.99145,2.99145 0,1.70941 -1.28205,2.99146 -2.99145,2.99146 z"
       id="path-1_1_"
       style="fill:#ffffff;fill-opacity:1" />
  </g>
</svg>
